<svg width="784" height="312" viewBox="0 0 784 312" fill="none" xmlns="http://www.w3.org/2000/svg">
<path d="M660.676 139.586L624.176 157.81L624.815 150.416L650.281 123.52L660.676 139.586Z" fill="#BD917C"/>
<path d="M626.574 107.733L710.128 185.426C714.046 189.063 720.443 187.504 722.202 182.429L782.608 9.89777C784.567 4.26264 779.45 -1.29255 773.693 0.266097L582.439 51.0622C576.802 52.5808 575.003 59.6947 579.281 63.6912L626.574 107.733Z" fill="#F3D7CA"/>
<path d="M756.983 24.765L650.082 129.594L624.696 157.41C622.777 159.329 619.498 157.69 619.898 155.012L627.014 108.173L756.983 24.765Z" fill="#BD917C"/>
<path d="M1.19948 290.975C1.03957 290.975 0.919639 290.935 0.759727 290.895C0.160058 290.655 -0.159765 289.976 0.0801023 289.336C0.51986 288.177 0.959617 287.018 1.43935 285.899C1.67922 285.3 2.39882 284.98 2.99849 285.22C3.59816 285.459 3.91798 286.179 3.67812 286.778C3.23836 287.897 2.75862 289.056 2.31887 290.175C2.11898 290.695 1.67922 290.975 1.19948 290.975ZM265.694 290.056C265.654 290.056 265.654 290.056 265.614 290.056C263.974 289.936 262.295 289.776 260.656 289.536C260.017 289.456 259.537 288.857 259.617 288.177C259.697 287.538 260.297 287.058 260.976 287.138C262.575 287.378 264.174 287.538 265.773 287.618C266.453 287.658 266.933 288.217 266.893 288.897C266.853 289.576 266.333 290.056 265.694 290.056ZM277.927 289.576C277.327 289.576 276.807 289.136 276.727 288.537C276.647 287.897 277.087 287.258 277.767 287.178C279.326 286.938 280.925 286.658 282.484 286.339C283.124 286.179 283.764 286.618 283.923 287.258C284.083 287.897 283.644 288.537 283.004 288.697C281.365 289.056 279.726 289.336 278.087 289.576C278.047 289.576 278.007 289.576 277.927 289.576ZM248.903 286.778C248.783 286.778 248.663 286.778 248.543 286.738C246.984 286.219 245.425 285.659 243.866 285.06C243.266 284.82 242.946 284.101 243.186 283.501C243.426 282.902 244.145 282.582 244.745 282.822C246.264 283.421 247.783 283.981 249.263 284.46C249.902 284.66 250.222 285.34 250.022 285.979C249.902 286.459 249.423 286.778 248.903 286.778ZM294.438 285.02C293.958 285.02 293.518 284.74 293.318 284.261C293.078 283.661 293.358 282.942 293.958 282.702C295.437 282.102 296.916 281.423 298.356 280.704C298.955 280.424 299.675 280.664 299.955 281.263C300.234 281.863 299.995 282.582 299.395 282.862C297.916 283.581 296.357 284.261 294.837 284.9C294.758 285.02 294.598 285.02 294.438 285.02ZM233.271 279.824C233.072 279.824 232.872 279.784 232.672 279.665C231.273 278.865 229.833 278.026 228.394 277.147C227.834 276.787 227.675 276.068 227.994 275.508C228.314 274.949 229.074 274.789 229.633 275.108C231.033 275.948 232.432 276.787 233.791 277.586C234.351 277.906 234.591 278.625 234.271 279.225C234.111 279.585 233.671 279.824 233.271 279.824ZM368.997 277.706C368.317 277.706 367.797 277.187 367.797 276.507C367.797 275.828 368.317 275.308 368.997 275.308C370.596 275.308 372.235 275.268 373.834 275.188C374.474 275.148 375.073 275.668 375.073 276.347C375.113 277.027 374.593 277.586 373.914 277.586C372.275 277.666 370.636 277.706 368.997 277.706ZM356.763 277.067C356.723 277.067 356.683 277.067 356.643 277.067C355.684 276.947 354.684 276.827 353.725 276.707C353.045 276.627 352.406 276.507 351.726 276.387C351.086 276.267 350.647 275.668 350.727 275.029C350.847 274.389 351.446 273.949 352.086 274.029C352.726 274.149 353.365 274.229 354.005 274.309C354.964 274.429 355.924 274.549 356.883 274.669C357.523 274.749 358.003 275.348 357.963 275.988C357.883 276.627 357.363 277.067 356.763 277.067ZM309.469 276.867C309.07 276.867 308.71 276.667 308.47 276.347C308.11 275.788 308.23 275.068 308.79 274.669C310.109 273.79 311.428 272.83 312.708 271.831C313.227 271.432 313.987 271.512 314.387 272.071C314.786 272.591 314.706 273.35 314.147 273.75C312.828 274.749 311.468 275.748 310.109 276.667C309.949 276.787 309.709 276.867 309.469 276.867ZM386.107 276.507C385.507 276.507 384.988 276.068 384.908 275.468C384.828 274.829 385.268 274.189 385.947 274.109C387.506 273.909 389.145 273.63 390.745 273.39C391.384 273.27 392.024 273.71 392.144 274.389C392.264 275.029 391.824 275.668 391.144 275.788C389.505 276.068 387.866 276.307 386.267 276.547C386.187 276.507 386.147 276.507 386.107 276.507ZM7.516 276.347C7.35609 276.347 7.1562 276.307 6.99629 276.227C6.39662 275.948 6.15675 275.228 6.43659 274.629C7.1562 273.15 7.8758 271.671 8.63538 270.233C8.9552 269.633 9.67481 269.433 10.2345 269.713C10.8342 270.033 11.0341 270.752 10.7542 271.312C10.0346 272.75 9.27503 274.189 8.5954 275.668C8.39551 276.108 7.95576 276.347 7.516 276.347ZM339.973 273.67C339.853 273.67 339.733 273.67 339.613 273.63C338.054 273.15 336.454 272.671 334.895 272.111C334.256 271.911 333.936 271.192 334.176 270.592C334.376 269.953 335.095 269.633 335.695 269.873C337.214 270.393 338.773 270.912 340.292 271.352C340.932 271.552 341.292 272.191 341.092 272.83C340.972 273.35 340.492 273.67 339.973 273.67ZM402.938 273.27C402.378 273.27 401.898 272.91 401.778 272.351C401.619 271.711 402.018 271.072 402.658 270.912C404.217 270.552 405.776 270.113 407.375 269.713C408.015 269.553 408.655 269.913 408.855 270.552C409.014 271.192 408.655 271.831 408.015 272.031C406.416 272.471 404.817 272.87 403.258 273.27C403.138 273.27 403.018 273.27 402.938 273.27ZM218.959 270.393C218.719 270.393 218.44 270.313 218.24 270.153C216.96 269.194 215.641 268.154 214.362 267.115C213.842 266.716 213.762 265.956 214.202 265.437C214.602 264.917 215.361 264.837 215.881 265.277C217.16 266.316 218.44 267.315 219.719 268.274C220.239 268.674 220.359 269.433 219.959 269.953C219.679 270.193 219.319 270.393 218.959 270.393ZM419.409 268.514C418.889 268.514 418.449 268.194 418.249 267.675C418.049 267.035 418.369 266.356 419.009 266.156C420.528 265.677 422.087 265.157 423.646 264.598C424.286 264.398 424.966 264.717 425.166 265.357C425.365 265.996 425.046 266.676 424.406 266.876C422.807 267.435 421.248 267.955 419.729 268.434C419.689 268.514 419.529 268.514 419.409 268.514ZM324.021 267.435C323.861 267.435 323.662 267.395 323.502 267.315C322.022 266.596 320.543 265.796 319.104 264.997C318.544 264.677 318.305 263.958 318.624 263.359C318.944 262.799 319.664 262.559 320.263 262.879C320.823 263.199 321.383 263.479 321.943 263.798C323.062 262.679 324.181 261.56 325.221 260.401C325.66 259.922 326.42 259.882 326.9 260.321C327.38 260.761 327.419 261.52 326.98 262C326.06 262.999 325.141 263.998 324.181 264.957C324.301 265.037 324.421 265.077 324.541 265.157C325.141 265.437 325.381 266.156 325.101 266.756C324.861 267.195 324.461 267.435 324.021 267.435ZM435.56 262.719C435.08 262.719 434.64 262.439 434.44 261.96C434.201 261.36 434.52 260.641 435.12 260.401C436.639 259.802 438.158 259.202 439.678 258.603C440.277 258.363 440.997 258.643 441.237 259.282C441.477 259.882 441.197 260.601 440.557 260.841C439.038 261.44 437.519 262.04 436 262.639C435.88 262.719 435.72 262.719 435.56 262.719ZM15.7515 261.32C15.5516 261.32 15.3117 261.28 15.1118 261.121C14.5521 260.761 14.3922 260.041 14.712 259.482C15.5915 258.083 16.4711 256.684 17.3906 255.326C17.7504 254.766 18.5099 254.606 19.0696 255.006C19.6293 255.366 19.7892 256.125 19.3894 256.684C18.5099 258.003 17.6304 259.402 16.7509 260.761C16.511 261.121 16.1512 261.32 15.7515 261.32ZM205.847 259.322C205.567 259.322 205.287 259.202 205.047 259.002C203.888 257.963 202.728 256.844 201.449 255.645C200.969 255.206 200.929 254.446 201.409 253.967C201.849 253.487 202.608 253.447 203.088 253.927C204.367 255.126 205.527 256.205 206.686 257.244C207.166 257.684 207.206 258.443 206.766 258.922C206.486 259.202 206.166 259.322 205.847 259.322ZM309.349 258.523C309.11 258.523 308.87 258.443 308.63 258.283C307.311 257.324 305.991 256.285 304.712 255.246C304.192 254.846 304.112 254.087 304.552 253.567C304.952 253.048 305.711 252.968 306.231 253.407C307.47 254.406 308.79 255.406 310.069 256.365C310.589 256.764 310.709 257.524 310.349 258.043C310.069 258.363 309.709 258.523 309.349 258.523ZM451.471 256.285C450.991 256.285 450.552 256.005 450.352 255.565C450.112 254.966 450.392 254.246 450.991 254.007C452.51 253.367 453.99 252.728 455.509 252.088C456.108 251.809 456.828 252.128 457.068 252.728C457.308 253.327 457.028 254.047 456.428 254.286C454.909 254.926 453.43 255.565 451.911 256.205C451.791 256.285 451.631 256.285 451.471 256.285ZM333.816 252.928C333.576 252.928 333.336 252.848 333.096 252.688C332.577 252.288 332.457 251.569 332.816 251.009C333.736 249.73 334.695 248.372 335.575 247.013C335.935 246.453 336.694 246.293 337.254 246.653C337.814 247.013 337.974 247.772 337.614 248.332C336.694 249.73 335.775 251.089 334.815 252.408C334.576 252.728 334.176 252.928 333.816 252.928ZM467.222 249.491C466.783 249.491 466.343 249.211 466.143 248.771C465.863 248.172 466.143 247.452 466.743 247.173C468.222 246.493 469.741 245.854 471.22 245.174C471.82 244.895 472.539 245.174 472.819 245.774C473.099 246.373 472.819 247.093 472.22 247.372C470.74 248.052 469.221 248.731 467.742 249.371C467.542 249.491 467.382 249.491 467.222 249.491ZM193.373 247.532C193.054 247.532 192.774 247.412 192.534 247.213C191.375 246.094 190.175 244.935 189.016 243.816C188.536 243.376 188.536 242.617 188.976 242.137C189.416 241.657 190.175 241.657 190.655 242.097C191.854 243.216 193.014 244.375 194.173 245.494C194.653 245.974 194.653 246.693 194.213 247.173C194.013 247.412 193.693 247.532 193.373 247.532ZM25.626 247.332C25.3462 247.332 25.1063 247.253 24.8664 247.053C24.3467 246.653 24.2668 245.894 24.6665 245.374C25.706 244.095 26.7454 242.816 27.8248 241.577C28.2645 241.058 29.0241 241.018 29.5039 241.458C30.0236 241.897 30.0636 242.657 29.6238 243.136C28.5844 244.335 27.5449 245.614 26.5055 246.853C26.3056 247.173 25.9458 247.332 25.626 247.332ZM296.437 247.293C296.117 247.293 295.797 247.173 295.557 246.933C294.398 245.734 293.278 244.495 292.199 243.256C291.759 242.736 291.839 242.017 292.319 241.577C292.799 241.138 293.558 241.178 293.998 241.697C295.037 242.896 296.157 244.095 297.276 245.254C297.716 245.734 297.716 246.493 297.236 246.933C297.036 247.173 296.716 247.293 296.437 247.293ZM482.814 242.377C482.374 242.377 481.934 242.137 481.734 241.697C481.454 241.098 481.694 240.378 482.294 240.099C483.773 239.419 485.252 238.7 486.732 238.021C487.331 237.741 488.051 237.981 488.331 238.58C488.611 239.18 488.371 239.899 487.771 240.179C486.292 240.898 484.813 241.577 483.333 242.297C483.174 242.337 483.014 242.377 482.814 242.377ZM342.731 238.3C342.531 238.3 342.371 238.26 342.171 238.18C341.572 237.901 341.332 237.141 341.652 236.582C342.371 235.143 343.091 233.664 343.73 232.226C344.01 231.626 344.73 231.346 345.33 231.626C345.929 231.906 346.209 232.625 345.929 233.225C345.25 234.703 344.53 236.222 343.77 237.701C343.611 238.06 343.171 238.3 342.731 238.3ZM180.9 235.742C180.62 235.742 180.341 235.623 180.101 235.423C178.861 234.304 177.622 233.225 176.463 232.186C175.983 231.746 175.903 230.987 176.343 230.507C176.783 229.987 177.542 229.948 178.022 230.387C179.221 231.426 180.461 232.505 181.7 233.664C182.18 234.104 182.22 234.863 181.78 235.343C181.54 235.623 181.22 235.742 180.9 235.742ZM498.285 234.903C497.845 234.903 497.406 234.663 497.206 234.224C496.926 233.624 497.166 232.905 497.726 232.625C499.205 231.906 500.644 231.186 502.083 230.427C502.683 230.147 503.402 230.347 503.682 230.947C503.962 231.546 503.762 232.265 503.163 232.545C501.683 233.265 500.244 234.024 498.765 234.743C498.645 234.863 498.445 234.903 498.285 234.903ZM37.2196 234.703C36.8998 234.703 36.58 234.583 36.3401 234.344C35.9003 233.864 35.9003 233.105 36.3801 232.665C37.5794 231.546 38.8187 230.427 40.058 229.348C40.5778 228.908 41.2974 228.988 41.7371 229.468C42.1769 229.987 42.0969 230.707 41.6172 231.146C40.4178 232.186 39.1785 233.265 38.0192 234.384C37.8193 234.623 37.5394 234.703 37.2196 234.703ZM285.762 233.904C285.363 233.904 285.003 233.704 284.763 233.345C283.844 231.946 282.964 230.547 282.164 229.108C281.845 228.549 282.045 227.789 282.604 227.47C283.164 227.15 283.923 227.35 284.243 227.909C285.043 229.308 285.882 230.667 286.762 232.026C287.122 232.585 286.962 233.305 286.402 233.704C286.202 233.824 285.962 233.904 285.762 233.904ZM513.557 227.07C513.117 227.07 512.717 226.83 512.477 226.431C512.158 225.831 512.397 225.112 512.997 224.792C514.436 224.033 515.875 223.273 517.315 222.514C517.914 222.194 518.634 222.434 518.954 222.994C519.274 223.593 519.034 224.312 518.474 224.632C517.035 225.391 515.596 226.151 514.116 226.91C513.917 227.03 513.717 227.07 513.557 227.07ZM167.708 224.792C167.468 224.792 167.188 224.712 166.988 224.552C165.669 223.553 164.349 222.594 163.07 221.715C162.51 221.355 162.391 220.596 162.75 220.036C163.11 219.477 163.87 219.357 164.429 219.716C165.749 220.636 167.108 221.595 168.427 222.594C168.947 222.994 169.067 223.753 168.667 224.272C168.427 224.632 168.067 224.792 167.708 224.792ZM50.5722 223.953C50.1725 223.953 49.8127 223.753 49.5728 223.433C49.213 222.874 49.3329 222.154 49.8926 221.755C51.2519 220.835 52.6511 219.916 54.0503 219.037C54.61 218.677 55.3696 218.877 55.6894 219.437C56.0492 219.996 55.8493 220.755 55.2896 221.075C53.9304 221.914 52.5711 222.794 51.2119 223.713C51.012 223.913 50.8121 223.953 50.5722 223.953ZM349.327 222.474C349.207 222.474 349.088 222.474 348.968 222.394C348.328 222.194 348.008 221.515 348.208 220.875C348.728 219.357 349.167 217.798 349.607 216.239C349.767 215.6 350.447 215.24 351.086 215.4C351.726 215.6 352.086 216.239 351.926 216.879C351.486 218.477 351.006 220.036 350.487 221.635C350.287 222.154 349.807 222.474 349.327 222.474ZM528.628 218.957C528.189 218.957 527.789 218.717 527.589 218.358C527.269 217.758 527.469 217.039 528.069 216.719C529.508 215.92 530.907 215.12 532.346 214.321C532.906 214.001 533.666 214.201 533.985 214.761C534.305 215.32 534.105 216.08 533.546 216.399C532.107 217.199 530.707 217.998 529.268 218.797C529.028 218.877 528.828 218.957 528.628 218.957ZM277.847 218.717C277.367 218.717 276.927 218.437 276.727 217.958C276.128 216.439 275.528 214.841 275.008 213.282C274.809 212.642 275.128 211.963 275.768 211.763C276.408 211.563 277.087 211.883 277.287 212.523C277.807 214.041 278.367 215.56 278.966 217.039C279.206 217.638 278.926 218.358 278.287 218.597C278.127 218.677 277.967 218.717 277.847 218.717ZM153.236 215.64C153.076 215.64 152.876 215.6 152.716 215.52C151.277 214.801 149.797 214.121 148.318 213.522C147.719 213.282 147.439 212.563 147.679 211.963C147.919 211.364 148.638 211.084 149.238 211.324C150.757 211.963 152.276 212.682 153.755 213.402C154.355 213.682 154.595 214.401 154.315 215C154.115 215.4 153.675 215.64 153.236 215.64ZM65.444 215.48C65.0043 215.48 64.5645 215.24 64.3646 214.801C64.0848 214.201 64.3247 213.482 64.9643 213.202C66.4435 212.523 68.0026 211.843 69.5218 211.204C70.1215 210.964 70.8411 211.244 71.0809 211.843C71.3208 212.443 71.0409 213.162 70.4413 213.402C68.9621 214.001 67.4429 214.681 66.0037 215.36C65.7639 215.44 65.6039 215.48 65.444 215.48ZM543.58 210.484C543.18 210.484 542.781 210.285 542.541 209.885C542.221 209.325 542.381 208.566 542.981 208.246C544.38 207.407 545.779 206.608 547.218 205.768C547.778 205.449 548.537 205.609 548.857 206.208C549.177 206.768 549.017 207.527 548.418 207.847C547.018 208.686 545.579 209.525 544.18 210.324C543.98 210.404 543.78 210.484 543.58 210.484ZM137.204 209.565C137.085 209.565 137.005 209.565 136.885 209.525C135.325 209.086 133.766 208.686 132.207 208.326C131.568 208.166 131.168 207.527 131.288 206.887C131.448 206.248 132.087 205.848 132.727 205.968C134.326 206.328 135.965 206.728 137.524 207.167C138.164 207.327 138.524 208.006 138.364 208.646C138.204 209.245 137.724 209.565 137.204 209.565ZM81.5152 209.565C80.9955 209.565 80.5157 209.205 80.3558 208.686C80.1959 208.046 80.5557 207.407 81.1954 207.207C82.7945 206.768 84.3936 206.368 85.9927 206.008C86.6323 205.848 87.272 206.288 87.4319 206.927C87.5918 207.567 87.1521 208.206 86.5124 208.366C84.9533 208.726 83.3542 209.126 81.795 209.525C81.7151 209.525 81.6351 209.565 81.5152 209.565ZM120.374 206.408C120.334 206.408 120.294 206.408 120.254 206.408C118.655 206.248 117.016 206.088 115.416 206.008C114.737 205.968 114.257 205.409 114.297 204.729C114.337 204.05 114.897 203.57 115.576 203.61C117.215 203.69 118.895 203.85 120.534 204.01C121.173 204.09 121.653 204.649 121.613 205.329C121.493 205.928 120.973 206.408 120.374 206.408ZM98.3459 206.368C97.7462 206.368 97.2265 205.928 97.1465 205.289C97.0666 204.649 97.5463 204.05 98.2259 203.97C99.865 203.81 101.544 203.65 103.183 203.57C103.863 203.53 104.423 204.05 104.463 204.689C104.502 205.329 103.983 205.928 103.343 205.968C101.744 206.048 100.105 206.208 98.5058 206.368C98.4258 206.368 98.3859 206.368 98.3459 206.368ZM353.445 205.848C353.365 205.848 353.325 205.848 353.245 205.848C352.606 205.728 352.166 205.129 352.246 204.45C352.526 202.851 352.766 201.252 352.965 199.654C353.045 199.014 353.645 198.535 354.285 198.615C354.924 198.695 355.404 199.294 355.324 199.973C355.124 201.612 354.884 203.251 354.604 204.889C354.525 205.409 354.005 205.848 353.445 205.848ZM273.049 202.251C272.49 202.251 271.97 201.852 271.89 201.292C271.57 199.654 271.33 198.015 271.091 196.377C271.011 195.737 271.45 195.098 272.13 195.018C272.81 194.938 273.409 195.377 273.489 196.057C273.689 197.655 273.969 199.254 274.249 200.813C274.369 201.452 273.929 202.092 273.289 202.212C273.169 202.251 273.129 202.251 273.049 202.251ZM558.292 201.692C557.892 201.692 557.493 201.492 557.253 201.132C556.893 200.573 557.093 199.814 557.652 199.494C559.052 198.655 560.451 197.775 561.81 196.936C562.37 196.576 563.129 196.776 563.449 197.336C563.769 197.895 563.609 198.655 563.049 198.974C561.65 199.854 560.251 200.693 558.852 201.532C558.732 201.612 558.492 201.692 558.292 201.692ZM572.844 192.58C572.444 192.58 572.044 192.38 571.845 192.02C571.485 191.461 571.645 190.741 572.204 190.382C573.564 189.502 574.963 188.623 576.322 187.704C576.882 187.344 577.601 187.504 578.001 188.064C578.361 188.623 578.201 189.343 577.641 189.742C576.282 190.622 574.883 191.541 573.524 192.42C573.284 192.5 573.044 192.58 572.844 192.58ZM355.004 188.783C354.325 188.783 353.805 188.224 353.805 187.544C353.805 186.905 353.805 186.305 353.805 185.666C353.805 184.667 353.805 183.708 353.765 182.708C353.765 182.029 354.285 181.509 354.924 181.469C355.604 181.429 356.124 181.989 356.164 182.628C356.204 183.628 356.204 184.667 356.204 185.666C356.204 186.305 356.204 186.945 356.204 187.584C356.204 188.224 355.684 188.783 355.004 188.783ZM271.45 185.226C270.771 185.226 270.251 184.707 270.251 184.027C270.251 182.389 270.291 180.71 270.371 179.072C270.411 178.392 270.971 177.913 271.65 177.952C272.33 177.992 272.81 178.552 272.77 179.231C272.69 180.83 272.65 182.469 272.65 184.067C272.65 184.667 272.09 185.226 271.45 185.226ZM587.156 183.148C586.756 183.148 586.397 182.948 586.157 182.628C585.797 182.069 585.917 181.35 586.477 180.95C587.836 180.031 589.195 179.111 590.514 178.192C591.074 177.833 591.794 177.952 592.193 178.512C592.553 179.072 592.433 179.791 591.874 180.191C590.514 181.11 589.155 182.029 587.796 182.948C587.636 183.068 587.396 183.148 587.156 183.148ZM601.268 173.396C600.909 173.396 600.509 173.237 600.269 172.877C599.869 172.317 600.029 171.598 600.549 171.198C601.868 170.239 603.227 169.32 604.547 168.361C605.066 167.961 605.826 168.081 606.226 168.641C606.625 169.2 606.505 169.919 605.946 170.319C604.627 171.278 603.267 172.237 601.948 173.157C601.748 173.316 601.508 173.396 601.268 173.396ZM354.005 171.678C353.405 171.678 352.885 171.238 352.805 170.639C352.566 169.04 352.326 167.442 352.046 165.843C351.926 165.204 352.366 164.564 353.005 164.444C353.645 164.324 354.285 164.764 354.405 165.403C354.684 167.002 354.964 168.641 355.204 170.279C355.284 170.919 354.844 171.558 354.165 171.638C354.085 171.678 354.045 171.678 354.005 171.678ZM273.049 168.161C272.97 168.161 272.89 168.161 272.81 168.121C272.17 168.001 271.73 167.362 271.85 166.722C272.17 165.084 272.53 163.485 272.89 161.886C273.049 161.247 273.689 160.847 274.329 161.007C274.968 161.167 275.368 161.806 275.208 162.446C274.809 164.005 274.489 165.603 274.169 167.162C274.129 167.761 273.609 168.161 273.049 168.161ZM350.287 154.932C349.767 154.932 349.287 154.613 349.128 154.093C348.648 152.534 348.128 151.016 347.608 149.497C347.368 148.858 347.688 148.178 348.328 147.978C348.968 147.739 349.647 148.058 349.847 148.698C350.407 150.256 350.927 151.815 351.406 153.414C351.606 154.053 351.246 154.733 350.607 154.892C350.527 154.932 350.407 154.932 350.287 154.932ZM277.807 151.695C277.647 151.695 277.527 151.655 277.367 151.615C276.767 151.375 276.448 150.656 276.687 150.057C277.287 148.538 277.967 146.979 278.646 145.501C278.926 144.901 279.646 144.621 280.246 144.901C280.845 145.181 281.125 145.9 280.845 146.5C280.166 147.938 279.526 149.457 278.926 150.936C278.726 151.415 278.287 151.695 277.807 151.695ZM343.85 139.066C343.411 139.066 343.011 138.826 342.811 138.427C342.051 136.988 341.212 135.589 340.372 134.31C340.013 133.751 340.172 133.031 340.732 132.672C341.292 132.312 342.011 132.472 342.371 133.031C343.251 134.39 344.13 135.829 344.93 137.348C345.25 137.947 345.01 138.666 344.45 138.986C344.21 139.026 344.01 139.066 343.85 139.066ZM285.762 136.548C285.523 136.548 285.283 136.468 285.083 136.348C284.523 135.989 284.403 135.229 284.763 134.67C285.722 133.271 286.722 131.952 287.761 130.673C288.201 130.154 288.921 130.074 289.44 130.514C289.96 130.953 290.04 131.673 289.6 132.192C288.601 133.391 287.641 134.71 286.722 136.029C286.522 136.388 286.162 136.548 285.762 136.548ZM333.456 125.478C333.176 125.478 332.896 125.358 332.657 125.158C331.457 124.079 330.178 123.12 328.939 122.281C328.379 121.921 328.219 121.162 328.579 120.602C328.939 120.043 329.698 119.883 330.258 120.242C331.617 121.162 332.976 122.201 334.256 123.36C334.735 123.799 334.775 124.559 334.336 125.038C334.136 125.358 333.816 125.478 333.456 125.478ZM297.556 124.199C297.196 124.199 296.836 124.039 296.596 123.719C296.197 123.2 296.317 122.44 296.876 122.041C298.276 121.042 299.715 120.123 301.154 119.323C301.754 119.003 302.473 119.243 302.793 119.803C303.113 120.402 302.873 121.122 302.313 121.441C300.954 122.161 299.635 123.04 298.316 123.959C298.076 124.119 297.836 124.199 297.556 124.199ZM318.225 118.204C318.185 118.204 318.105 118.204 318.065 118.204C317.945 118.204 317.825 118.164 317.705 118.164C316.266 118.004 314.826 117.964 313.387 118.084C312.708 118.124 312.148 117.645 312.108 116.965C312.068 116.286 312.548 115.726 313.227 115.686C314.786 115.566 316.386 115.606 317.985 115.806C318.105 115.806 318.225 115.846 318.384 115.846C319.024 115.926 319.504 116.526 319.424 117.205C319.344 117.765 318.824 118.204 318.225 118.204Z" fill="#BD917C"/>
<path opacity="0.06" d="M682.744 311.717C717.187 311.717 745.109 307.709 745.109 302.765C745.109 297.82 717.187 293.812 682.744 293.812C648.3 293.812 620.378 297.82 620.378 302.765C620.378 307.709 648.3 311.717 682.744 311.717Z" fill="#BD917C"/>
</svg>
